<mxfile host="app.diagrams.net" modified="2021-04-09T02:24:26.445Z" agent="5.0 (Windows NT 10.0; Win64; x64) AppleWebKit/537.36 (KHTML, like Gecko) Chrome/89.0.4389.114 Safari/537.36" etag="XfVyKfNGjijUttqvtRw5" version="14.5.8" type="github">
  <diagram id="aSgMjhB0fuY_xmFomWGF" name="Page-1">
    <mxGraphModel dx="813" dy="441" grid="1" gridSize="10" guides="1" tooltips="1" connect="1" arrows="1" fold="1" page="1" pageScale="1" pageWidth="827" pageHeight="1169" math="0" shadow="0">
      <root>
        <mxCell id="0" />
        <mxCell id="1" parent="0" />
        <mxCell id="KyBx4FIYHBhWxJHwX_a3-27" value="" style="rounded=0;whiteSpace=wrap;html=1;" vertex="1" parent="1">
          <mxGeometry x="260" y="239" width="290" height="360" as="geometry" />
        </mxCell>
        <mxCell id="KyBx4FIYHBhWxJHwX_a3-1" value="환자" style="shape=umlActor;verticalLabelPosition=bottom;verticalAlign=top;html=1;outlineConnect=0;" vertex="1" parent="1">
          <mxGeometry x="198" y="361" width="30" height="60" as="geometry" />
        </mxCell>
        <mxCell id="KyBx4FIYHBhWxJHwX_a3-2" value="의사" style="shape=umlActor;verticalLabelPosition=bottom;verticalAlign=top;html=1;outlineConnect=0;" vertex="1" parent="1">
          <mxGeometry x="198" y="261" width="30" height="60" as="geometry" />
        </mxCell>
        <mxCell id="KyBx4FIYHBhWxJHwX_a3-3" value="관리자" style="shape=umlActor;verticalLabelPosition=bottom;verticalAlign=top;html=1;outlineConnect=0;" vertex="1" parent="1">
          <mxGeometry x="198" y="471" width="30" height="60" as="geometry" />
        </mxCell>
        <mxCell id="KyBx4FIYHBhWxJHwX_a3-5" value="UC1: 진단" style="rounded=1;whiteSpace=wrap;html=1;" vertex="1" parent="1">
          <mxGeometry x="280" y="251" width="120" height="20" as="geometry" />
        </mxCell>
        <mxCell id="KyBx4FIYHBhWxJHwX_a3-6" value="UC2: 예약/상담" style="rounded=1;whiteSpace=wrap;html=1;" vertex="1" parent="1">
          <mxGeometry x="280" y="281" width="120" height="20" as="geometry" />
        </mxCell>
        <mxCell id="KyBx4FIYHBhWxJHwX_a3-7" value="UC3: 대기순서" style="rounded=1;whiteSpace=wrap;html=1;" vertex="1" parent="1">
          <mxGeometry x="280" y="311" width="120" height="20" as="geometry" />
        </mxCell>
        <mxCell id="KyBx4FIYHBhWxJHwX_a3-8" value="UC4: 진료비계산" style="rounded=1;whiteSpace=wrap;html=1;" vertex="1" parent="1">
          <mxGeometry x="280" y="341" width="120" height="20" as="geometry" />
        </mxCell>
        <mxCell id="KyBx4FIYHBhWxJHwX_a3-9" value="UC5: 진료피드백" style="rounded=1;whiteSpace=wrap;html=1;" vertex="1" parent="1">
          <mxGeometry x="280" y="381" width="120" height="20" as="geometry" />
        </mxCell>
        <mxCell id="KyBx4FIYHBhWxJHwX_a3-10" value="UC6: 검색" style="rounded=1;whiteSpace=wrap;html=1;" vertex="1" parent="1">
          <mxGeometry x="280" y="411" width="120" height="20" as="geometry" />
        </mxCell>
        <mxCell id="KyBx4FIYHBhWxJHwX_a3-11" value="UC7: 계정추가" style="rounded=1;whiteSpace=wrap;html=1;" vertex="1" parent="1">
          <mxGeometry x="280" y="441" width="120" height="20" as="geometry" />
        </mxCell>
        <mxCell id="KyBx4FIYHBhWxJHwX_a3-12" value="UC8: 계정삭제" style="rounded=1;whiteSpace=wrap;html=1;" vertex="1" parent="1">
          <mxGeometry x="280" y="471" width="120" height="20" as="geometry" />
        </mxCell>
        <mxCell id="KyBx4FIYHBhWxJHwX_a3-13" value="UC9: 의사등록" style="rounded=1;whiteSpace=wrap;html=1;" vertex="1" parent="1">
          <mxGeometry x="280" y="501" width="120" height="20" as="geometry" />
        </mxCell>
        <mxCell id="KyBx4FIYHBhWxJHwX_a3-14" value="UC10: 열람" style="rounded=1;whiteSpace=wrap;html=1;" vertex="1" parent="1">
          <mxGeometry x="280" y="531" width="120" height="20" as="geometry" />
        </mxCell>
        <mxCell id="KyBx4FIYHBhWxJHwX_a3-15" value="UC11: 사이트피드백" style="rounded=1;whiteSpace=wrap;html=1;" vertex="1" parent="1">
          <mxGeometry x="280" y="561" width="120" height="20" as="geometry" />
        </mxCell>
        <mxCell id="KyBx4FIYHBhWxJHwX_a3-16" value="진료시스템" style="shape=umlActor;verticalLabelPosition=bottom;verticalAlign=top;html=1;outlineConnect=0;" vertex="1" parent="1">
          <mxGeometry x="590" y="223" width="30" height="60" as="geometry" />
        </mxCell>
        <mxCell id="KyBx4FIYHBhWxJHwX_a3-19" value="의사-환자&lt;br&gt;매칭시스템" style="shape=umlActor;verticalLabelPosition=bottom;verticalAlign=top;html=1;outlineConnect=0;" vertex="1" parent="1">
          <mxGeometry x="590" y="313" width="30" height="60" as="geometry" />
        </mxCell>
        <mxCell id="KyBx4FIYHBhWxJHwX_a3-21" value="검색시스템" style="shape=umlActor;verticalLabelPosition=bottom;verticalAlign=top;html=1;outlineConnect=0;" vertex="1" parent="1">
          <mxGeometry x="590" y="433" width="30" height="60" as="geometry" />
        </mxCell>
        <mxCell id="KyBx4FIYHBhWxJHwX_a3-22" value="데이터베이스" style="shape=umlActor;verticalLabelPosition=bottom;verticalAlign=top;html=1;outlineConnect=0;" vertex="1" parent="1">
          <mxGeometry x="590" y="523" width="30" height="60" as="geometry" />
        </mxCell>
        <mxCell id="KyBx4FIYHBhWxJHwX_a3-25" value="UC12: 로그인" style="rounded=1;whiteSpace=wrap;html=1;" vertex="1" parent="1">
          <mxGeometry x="420" y="457" width="120" height="20" as="geometry" />
        </mxCell>
        <mxCell id="KyBx4FIYHBhWxJHwX_a3-29" value="" style="endArrow=none;html=1;entryX=0;entryY=0.5;entryDx=0;entryDy=0;strokeColor=#007FFF;" edge="1" parent="1" target="KyBx4FIYHBhWxJHwX_a3-5">
          <mxGeometry width="50" height="50" relative="1" as="geometry">
            <mxPoint x="230" y="290" as="sourcePoint" />
            <mxPoint x="310" y="460" as="targetPoint" />
          </mxGeometry>
        </mxCell>
        <mxCell id="KyBx4FIYHBhWxJHwX_a3-30" value="" style="endArrow=none;html=1;strokeColor=#007FFF;" edge="1" parent="1" target="KyBx4FIYHBhWxJHwX_a3-6">
          <mxGeometry width="50" height="50" relative="1" as="geometry">
            <mxPoint x="230" y="290" as="sourcePoint" />
            <mxPoint x="290" y="271" as="targetPoint" />
          </mxGeometry>
        </mxCell>
        <mxCell id="KyBx4FIYHBhWxJHwX_a3-31" value="" style="endArrow=none;html=1;entryX=0;entryY=0.5;entryDx=0;entryDy=0;strokeColor=#007FFF;" edge="1" parent="1" target="KyBx4FIYHBhWxJHwX_a3-7">
          <mxGeometry width="50" height="50" relative="1" as="geometry">
            <mxPoint x="230" y="290" as="sourcePoint" />
            <mxPoint x="290" y="300.4545454545454" as="targetPoint" />
          </mxGeometry>
        </mxCell>
        <mxCell id="KyBx4FIYHBhWxJHwX_a3-32" value="" style="endArrow=none;html=1;entryX=0;entryY=0.5;entryDx=0;entryDy=0;strokeColor=#007FFF;" edge="1" parent="1" target="KyBx4FIYHBhWxJHwX_a3-8">
          <mxGeometry width="50" height="50" relative="1" as="geometry">
            <mxPoint x="230" y="290" as="sourcePoint" />
            <mxPoint x="290" y="331" as="targetPoint" />
          </mxGeometry>
        </mxCell>
        <mxCell id="KyBx4FIYHBhWxJHwX_a3-33" value="" style="endArrow=none;html=1;entryX=0;entryY=0.5;entryDx=0;entryDy=0;strokeColor=#007FFF;" edge="1" parent="1" target="KyBx4FIYHBhWxJHwX_a3-15">
          <mxGeometry width="50" height="50" relative="1" as="geometry">
            <mxPoint x="230" y="290" as="sourcePoint" />
            <mxPoint x="290" y="361" as="targetPoint" />
          </mxGeometry>
        </mxCell>
        <mxCell id="KyBx4FIYHBhWxJHwX_a3-34" value="" style="endArrow=none;html=1;entryX=0;entryY=0.5;entryDx=0;entryDy=0;strokeColor=#66CC00;" edge="1" parent="1" target="KyBx4FIYHBhWxJHwX_a3-5">
          <mxGeometry width="50" height="50" relative="1" as="geometry">
            <mxPoint x="230" y="390" as="sourcePoint" />
            <mxPoint x="290" y="361" as="targetPoint" />
          </mxGeometry>
        </mxCell>
        <mxCell id="KyBx4FIYHBhWxJHwX_a3-35" value="" style="endArrow=none;html=1;entryX=0;entryY=0.5;entryDx=0;entryDy=0;strokeColor=#66CC00;" edge="1" parent="1" target="KyBx4FIYHBhWxJHwX_a3-6">
          <mxGeometry width="50" height="50" relative="1" as="geometry">
            <mxPoint x="230" y="390" as="sourcePoint" />
            <mxPoint x="290" y="271" as="targetPoint" />
          </mxGeometry>
        </mxCell>
        <mxCell id="KyBx4FIYHBhWxJHwX_a3-36" value="" style="endArrow=none;html=1;entryX=0;entryY=0.5;entryDx=0;entryDy=0;strokeColor=#66CC00;" edge="1" parent="1" target="KyBx4FIYHBhWxJHwX_a3-7">
          <mxGeometry width="50" height="50" relative="1" as="geometry">
            <mxPoint x="230" y="390" as="sourcePoint" />
            <mxPoint x="290" y="301" as="targetPoint" />
          </mxGeometry>
        </mxCell>
        <mxCell id="KyBx4FIYHBhWxJHwX_a3-37" value="" style="endArrow=none;html=1;entryX=0;entryY=0.5;entryDx=0;entryDy=0;strokeColor=#66CC00;" edge="1" parent="1" target="KyBx4FIYHBhWxJHwX_a3-8">
          <mxGeometry width="50" height="50" relative="1" as="geometry">
            <mxPoint x="230" y="390" as="sourcePoint" />
            <mxPoint x="290" y="331" as="targetPoint" />
          </mxGeometry>
        </mxCell>
        <mxCell id="KyBx4FIYHBhWxJHwX_a3-38" value="" style="endArrow=none;html=1;entryX=0;entryY=0.5;entryDx=0;entryDy=0;strokeColor=#66CC00;" edge="1" parent="1" target="KyBx4FIYHBhWxJHwX_a3-9">
          <mxGeometry width="50" height="50" relative="1" as="geometry">
            <mxPoint x="230" y="390" as="sourcePoint" />
            <mxPoint x="290" y="361" as="targetPoint" />
          </mxGeometry>
        </mxCell>
        <mxCell id="KyBx4FIYHBhWxJHwX_a3-39" value="" style="endArrow=none;html=1;entryX=0;entryY=0.5;entryDx=0;entryDy=0;strokeColor=#66CC00;" edge="1" parent="1" target="KyBx4FIYHBhWxJHwX_a3-10">
          <mxGeometry width="50" height="50" relative="1" as="geometry">
            <mxPoint x="230" y="390" as="sourcePoint" />
            <mxPoint x="290" y="401" as="targetPoint" />
          </mxGeometry>
        </mxCell>
        <mxCell id="KyBx4FIYHBhWxJHwX_a3-40" value="" style="endArrow=none;html=1;entryX=0;entryY=0.5;entryDx=0;entryDy=0;strokeColor=#66CC00;" edge="1" parent="1" target="KyBx4FIYHBhWxJHwX_a3-15">
          <mxGeometry width="50" height="50" relative="1" as="geometry">
            <mxPoint x="230" y="390" as="sourcePoint" />
            <mxPoint x="290" y="431" as="targetPoint" />
          </mxGeometry>
        </mxCell>
        <mxCell id="KyBx4FIYHBhWxJHwX_a3-41" value="" style="endArrow=none;html=1;strokeColor=#FF8000;" edge="1" parent="1">
          <mxGeometry width="50" height="50" relative="1" as="geometry">
            <mxPoint x="230" y="500" as="sourcePoint" />
            <mxPoint x="280" y="260" as="targetPoint" />
          </mxGeometry>
        </mxCell>
        <mxCell id="KyBx4FIYHBhWxJHwX_a3-42" value="" style="endArrow=none;html=1;strokeColor=#FF8000;" edge="1" parent="1">
          <mxGeometry width="50" height="50" relative="1" as="geometry">
            <mxPoint x="230" y="500" as="sourcePoint" />
            <mxPoint x="280" y="290" as="targetPoint" />
          </mxGeometry>
        </mxCell>
        <mxCell id="KyBx4FIYHBhWxJHwX_a3-43" value="" style="endArrow=none;html=1;strokeColor=#FF8000;entryX=0;entryY=0.5;entryDx=0;entryDy=0;" edge="1" parent="1" target="KyBx4FIYHBhWxJHwX_a3-11">
          <mxGeometry width="50" height="50" relative="1" as="geometry">
            <mxPoint x="230" y="500" as="sourcePoint" />
            <mxPoint x="290" y="300" as="targetPoint" />
          </mxGeometry>
        </mxCell>
        <mxCell id="KyBx4FIYHBhWxJHwX_a3-44" value="" style="endArrow=none;html=1;strokeColor=#FF8000;entryX=0;entryY=0.5;entryDx=0;entryDy=0;" edge="1" parent="1" target="KyBx4FIYHBhWxJHwX_a3-12">
          <mxGeometry width="50" height="50" relative="1" as="geometry">
            <mxPoint x="230" y="500" as="sourcePoint" />
            <mxPoint x="290" y="461" as="targetPoint" />
          </mxGeometry>
        </mxCell>
        <mxCell id="KyBx4FIYHBhWxJHwX_a3-45" value="" style="endArrow=none;html=1;strokeColor=#FF8000;entryX=0;entryY=0.5;entryDx=0;entryDy=0;" edge="1" parent="1" target="KyBx4FIYHBhWxJHwX_a3-13">
          <mxGeometry width="50" height="50" relative="1" as="geometry">
            <mxPoint x="230" y="500" as="sourcePoint" />
            <mxPoint x="290" y="491" as="targetPoint" />
          </mxGeometry>
        </mxCell>
        <mxCell id="KyBx4FIYHBhWxJHwX_a3-46" value="" style="endArrow=none;html=1;strokeColor=#FF8000;entryX=0;entryY=0.5;entryDx=0;entryDy=0;" edge="1" parent="1" target="KyBx4FIYHBhWxJHwX_a3-14">
          <mxGeometry width="50" height="50" relative="1" as="geometry">
            <mxPoint x="230" y="500" as="sourcePoint" />
            <mxPoint x="290" y="521" as="targetPoint" />
          </mxGeometry>
        </mxCell>
        <mxCell id="KyBx4FIYHBhWxJHwX_a3-47" value="" style="endArrow=none;html=1;strokeColor=#FF8000;entryX=0;entryY=0.5;entryDx=0;entryDy=0;" edge="1" parent="1" target="KyBx4FIYHBhWxJHwX_a3-15">
          <mxGeometry width="50" height="50" relative="1" as="geometry">
            <mxPoint x="230" y="500" as="sourcePoint" />
            <mxPoint x="290" y="551" as="targetPoint" />
          </mxGeometry>
        </mxCell>
        <mxCell id="KyBx4FIYHBhWxJHwX_a3-51" value="" style="endArrow=blockThin;dashed=1;html=1;dashPattern=1 3;strokeWidth=1;exitX=1;exitY=0.5;exitDx=0;exitDy=0;entryX=0;entryY=0.5;entryDx=0;entryDy=0;endFill=1;endSize=3;" edge="1" parent="1" source="KyBx4FIYHBhWxJHwX_a3-11" target="KyBx4FIYHBhWxJHwX_a3-25">
          <mxGeometry width="50" height="50" relative="1" as="geometry">
            <mxPoint x="450" y="421" as="sourcePoint" />
            <mxPoint x="500" y="371" as="targetPoint" />
          </mxGeometry>
        </mxCell>
        <mxCell id="KyBx4FIYHBhWxJHwX_a3-53" value="" style="endArrow=blockThin;dashed=1;html=1;dashPattern=1 3;strokeWidth=1;exitX=1;exitY=0.5;exitDx=0;exitDy=0;entryX=0;entryY=0.5;entryDx=0;entryDy=0;endFill=1;endSize=3;" edge="1" parent="1" source="KyBx4FIYHBhWxJHwX_a3-12" target="KyBx4FIYHBhWxJHwX_a3-25">
          <mxGeometry width="50" height="50" relative="1" as="geometry">
            <mxPoint x="410" y="461" as="sourcePoint" />
            <mxPoint x="430" y="477" as="targetPoint" />
          </mxGeometry>
        </mxCell>
        <mxCell id="KyBx4FIYHBhWxJHwX_a3-54" value="" style="endArrow=none;html=1;exitX=1;exitY=0.5;exitDx=0;exitDy=0;" edge="1" parent="1" source="KyBx4FIYHBhWxJHwX_a3-5" target="KyBx4FIYHBhWxJHwX_a3-16">
          <mxGeometry width="50" height="50" relative="1" as="geometry">
            <mxPoint x="430" y="299.9999999999999" as="sourcePoint" />
            <mxPoint x="480" y="271" as="targetPoint" />
          </mxGeometry>
        </mxCell>
        <mxCell id="KyBx4FIYHBhWxJHwX_a3-55" value="" style="endArrow=none;html=1;exitX=1;exitY=0.5;exitDx=0;exitDy=0;" edge="1" parent="1" source="KyBx4FIYHBhWxJHwX_a3-8">
          <mxGeometry width="50" height="50" relative="1" as="geometry">
            <mxPoint x="410" y="271" as="sourcePoint" />
            <mxPoint x="590" y="270" as="targetPoint" />
          </mxGeometry>
        </mxCell>
        <mxCell id="KyBx4FIYHBhWxJHwX_a3-56" value="" style="endArrow=none;html=1;exitX=1;exitY=0.5;exitDx=0;exitDy=0;exitPerimeter=0;" edge="1" parent="1" source="KyBx4FIYHBhWxJHwX_a3-9">
          <mxGeometry width="50" height="50" relative="1" as="geometry">
            <mxPoint x="410" y="361" as="sourcePoint" />
            <mxPoint x="590" y="270" as="targetPoint" />
          </mxGeometry>
        </mxCell>
        <mxCell id="KyBx4FIYHBhWxJHwX_a3-57" value="" style="endArrow=none;html=1;exitX=1;exitY=0.5;exitDx=0;exitDy=0;" edge="1" parent="1" source="KyBx4FIYHBhWxJHwX_a3-6">
          <mxGeometry width="50" height="50" relative="1" as="geometry">
            <mxPoint x="410" y="401" as="sourcePoint" />
            <mxPoint x="590" y="360" as="targetPoint" />
          </mxGeometry>
        </mxCell>
        <mxCell id="KyBx4FIYHBhWxJHwX_a3-58" value="" style="endArrow=none;html=1;exitX=1;exitY=0.5;exitDx=0;exitDy=0;" edge="1" parent="1" source="KyBx4FIYHBhWxJHwX_a3-7">
          <mxGeometry width="50" height="50" relative="1" as="geometry">
            <mxPoint x="410" y="301" as="sourcePoint" />
            <mxPoint x="590" y="360" as="targetPoint" />
          </mxGeometry>
        </mxCell>
        <mxCell id="KyBx4FIYHBhWxJHwX_a3-59" value="" style="endArrow=none;html=1;exitX=1;exitY=0.5;exitDx=0;exitDy=0;" edge="1" parent="1" source="KyBx4FIYHBhWxJHwX_a3-10" target="KyBx4FIYHBhWxJHwX_a3-21">
          <mxGeometry width="50" height="50" relative="1" as="geometry">
            <mxPoint x="409.9999999999998" y="301" as="sourcePoint" />
            <mxPoint x="570" y="480" as="targetPoint" />
          </mxGeometry>
        </mxCell>
        <mxCell id="KyBx4FIYHBhWxJHwX_a3-60" value="" style="endArrow=none;html=1;exitX=1;exitY=0.5;exitDx=0;exitDy=0;" edge="1" parent="1" source="KyBx4FIYHBhWxJHwX_a3-13" target="KyBx4FIYHBhWxJHwX_a3-22">
          <mxGeometry width="50" height="50" relative="1" as="geometry">
            <mxPoint x="410" y="431" as="sourcePoint" />
            <mxPoint x="600" y="469.92682926829275" as="targetPoint" />
          </mxGeometry>
        </mxCell>
        <mxCell id="KyBx4FIYHBhWxJHwX_a3-61" value="" style="endArrow=none;html=1;exitX=1;exitY=0.5;exitDx=0;exitDy=0;" edge="1" parent="1" source="KyBx4FIYHBhWxJHwX_a3-14">
          <mxGeometry width="50" height="50" relative="1" as="geometry">
            <mxPoint x="410" y="521" as="sourcePoint" />
            <mxPoint x="590" y="550" as="targetPoint" />
          </mxGeometry>
        </mxCell>
        <mxCell id="KyBx4FIYHBhWxJHwX_a3-62" value="" style="endArrow=none;html=1;exitX=1;exitY=0.5;exitDx=0;exitDy=0;" edge="1" parent="1" source="KyBx4FIYHBhWxJHwX_a3-15">
          <mxGeometry width="50" height="50" relative="1" as="geometry">
            <mxPoint x="410" y="551" as="sourcePoint" />
            <mxPoint x="590" y="550" as="targetPoint" />
          </mxGeometry>
        </mxCell>
        <mxCell id="KyBx4FIYHBhWxJHwX_a3-63" value="" style="endArrow=none;html=1;exitX=1;exitY=0.5;exitDx=0;exitDy=0;" edge="1" parent="1" source="KyBx4FIYHBhWxJHwX_a3-25">
          <mxGeometry width="50" height="50" relative="1" as="geometry">
            <mxPoint x="410" y="581" as="sourcePoint" />
            <mxPoint x="590" y="550" as="targetPoint" />
          </mxGeometry>
        </mxCell>
      </root>
    </mxGraphModel>
  </diagram>
</mxfile>
